<?xml version="1.0" encoding="UTF-8" standalone="no"?>
<!-- Generator: Adobe Illustrator 16.0.0, SVG Export Plug-In . SVG Version: 6.00 Build 0)  -->

<svg
   version="1.1"
   id="Layer_1"
   x="0px"
   y="0px"
   width="512px"
   height="512px"
   viewBox="0 0 512 512"
   enable-background="new 0 0 512 512"
   xml:space="preserve"
   xmlns="http://www.w3.org/2000/svg"
   xmlns:svg="http://www.w3.org/2000/svg"
   xmlns:rdf="http://www.w3.org/1999/02/22-rdf-syntax-ns#"
   xmlns:cc="http://creativecommons.org/ns#"
   xmlns:dc="http://purl.org/dc/elements/1.1/"><metadata
   id="metadata9"><rdf:RDF><cc:Work
       rdf:about=""><dc:format>image/svg+xml</dc:format><dc:type
         rdf:resource="http://purl.org/dc/dcmitype/StillImage" /></cc:Work></rdf:RDF></metadata><defs
   id="defs7" />
<rect
   style="fill:#dbdbdb;fill-opacity:1;stroke:none;stroke-width:1.88976383;stroke-miterlimit:4;stroke-dasharray:none;stroke-opacity:1"
   id="rect821"
   width="512.54236"
   height="512.54236"
   x="0.54237288"
   y="0.54237235" /><path
   d="m 313.14122,310.64877 c 9.02181,-8.85097 12.15686,-31.23733 20.41627,-39.3056 11.69771,-11.43183 24.39381,-25.50218 27.98588,-43.06851 4.82003,-23.34203 -4.96846,-26.30516 -4.96846,-34.3713 0,-16.90002 -0.15376,-44.65739 -5.43081,-62.68607 -0.30326,-23.7809 -4.20499,-34.123578 -12.38858,-43.031138 -7.72017,-8.33522 -26.68637,-6.366203 -36.59125,-11.85361 C 286.83605,67.825407 274.23818,64.594254 258.15823,64.17461 v -0.09503 c -0.47624,0 -0.93539,0.05659 -1.41162,0.05659 -0.78484,0 -1.53123,-0.05659 -2.35343,-0.05659 l 0.0395,0.151627 c -39.17105,1.472492 -80.84608,26.170627 -95.16524,65.895863 -5.31335,14.71958 -3.28881,46.87521 -3.28881,63.77522 0,8.06721 -9.78742,11.02927 -4.96846,34.37131 3.61129,17.56632 16.28817,31.63668 27.98588,43.06851 8.26048,8.06827 11.39446,30.45462 20.39705,39.30559 1.96902,13.0378 2.1986,9.31012 2.12278,21.23954 -0.0203,4.03307 0.11426,10.28502 -6.32669,16.4398 -12.17822,11.6614 -40.14595,36.95324 -63.08756,46.79832 -30.24,12.98014 -79.41203,33.74237 -90.746691,39.59069 -11.334661,5.84833 -41.2532541,21.69763 -41.2532541,31.79045 0,10.11417 0,47.33542 0,47.33542 h 253.3742451 5.79494 253.37318 c 0,0 0,-37.22125 0,-47.33542 0,-10.09282 -29.89723,-25.94212 -41.25645,-31.79045 -11.35389,-5.84938 -60.48321,-26.61055 -90.72641,-39.59069 -22.32976,-9.57707 -49.43685,-33.81712 -62.09344,-45.84158 -4.2808,-4.05228 -7.3016,-8.29784 -7.3411,-18.62023 -0.0737,-12.00417 0.23278,-7.41692 2.14306,-20.01478"
   id="path2"
   style="clip-rule:evenodd;fill-rule:evenodd;stroke-width:1.06779659;fill:#f6f6f6;fill-opacity:1" />
</svg>
